<svg width="24" height="24" viewBox="0 0 24 24" fill="none" xmlns="http://www.w3.org/2000/svg">
<path d="M14.8117 3.96632C14.8117 4.75304 14.5155 5.50754 13.9883 6.06383C13.4611 6.62013 12.746 6.93265 12.0004 6.93265C11.2548 6.93265 10.5397 6.62013 10.0125 6.06383C9.48524 5.50754 9.18905 4.75304 9.18905 3.96632C9.18905 3.17961 9.48524 2.42511 10.0125 1.86882C10.5397 1.31252 11.2548 1 12.0004 1C12.746 1 13.4611 1.31252 13.9883 1.86882C14.5155 2.42511 14.8117 3.17961 14.8117 3.96632ZM11.9956 13.1329H9.0237V10.8691L6.75127 13.2829C5.72455 14.3665 4.33253 12.9775 5.36115 11.8921L9.12399 7.91383C9.42931 7.59403 9.76351 7.39042 10.2935 7.39042H13.6682C14.1982 7.39042 14.5562 7.58766 14.8701 7.91383L18.671 11.931C19.6502 12.9638 18.2213 14.3662 17.2816 13.3227L14.9495 10.8564V13.1325L11.9956 13.1329ZM14.9371 14.3073L12.7037 16.6645L14.343 18.3911L12.6631 20.1639C11.6709 21.2104 13.0395 22.7066 14.0646 21.6243L16.722 18.7092C17.292 18.0954 17.4498 16.9615 16.8385 16.3165C16.8366 16.3138 14.9368 14.3073 14.9368 14.3073H14.9371ZM9.02433 14.3073L11.258 16.6645L9.61878 18.3911L11.2987 20.1639C12.2905 21.2104 10.9226 22.7066 9.89712 21.6243L7.24003 18.7095C6.66939 18.0957 6.51197 16.9618 7.12355 16.3169C7.12514 16.3138 9.02497 14.3073 9.02497 14.3073H9.02433Z" fill="white"/>
</svg>
