<svg width="24" height="24" viewBox="0 0 24 24" fill="none" xmlns="http://www.w3.org/2000/svg">
<path d="M17.6571 5.30377C14.5331 2.23077 9.46814 2.23077 6.34414 5.30377C5.60242 6.02841 5.01305 6.894 4.61066 7.84968C4.20826 8.80536 4.00098 9.83184 4.00098 10.8688C4.00098 11.9057 4.20826 12.9322 4.61066 13.8879C5.01305 14.8435 5.60242 15.7091 6.34414 16.4338L12.0001 21.9988L17.6571 16.4338C18.3989 15.7091 18.9882 14.8435 19.3906 13.8879C19.793 12.9322 20.0003 11.9057 20.0003 10.8688C20.0003 9.83184 19.793 8.80536 19.3906 7.84968C18.9882 6.894 18.3989 6.02841 17.6571 5.30377ZM12.0001 13.4988C11.3321 13.4988 10.7051 13.2388 10.2321 12.7668C9.76389 12.2975 9.50092 11.6617 9.50092 10.9988C9.50092 10.3359 9.76389 9.70002 10.2321 9.23077C10.7041 8.75877 11.3321 8.49877 12.0001 8.49877C12.6681 8.49877 13.2961 8.75877 13.7681 9.23077C14.2364 9.70002 14.4994 10.3359 14.4994 10.9988C14.4994 11.6617 14.2364 12.2975 13.7681 12.7668C13.2961 13.2388 12.6681 13.4988 12.0001 13.4988Z" fill="white"/>
</svg>
