<svg width="24" height="24" viewBox="0 0 24 24" fill="none" xmlns="http://www.w3.org/2000/svg">
<path d="M15.8334 14.1251L12 18.0375L8.16656 14.1251C5.2942 14.2522 3 16.6516 3 19.6125C3 20.2457 3.24641 20.853 3.68502 21.3007C4.12363 21.7485 4.71851 22 5.33879 22H18.6612C19.2815 22 19.8764 21.7485 20.315 21.3007C20.7536 20.853 21 20.2457 21 19.6125C21 16.6516 18.7058 14.2522 15.8334 14.1251ZM12 13.4688C13.364 13.4688 14.6721 12.9157 15.6365 11.9311C16.601 10.9466 17.1429 9.61124 17.1429 8.21886V3.6998C17.1432 3.43238 17.0635 3.17124 16.9144 2.95134C16.7653 2.73144 16.554 2.56327 16.3087 2.46934L12.9028 1.16711C12.3207 0.944298 11.6793 0.944298 11.0972 1.16711L7.69125 2.47098C7.44624 2.56481 7.2351 2.73273 7.08606 2.95231C6.93701 3.17189 6.85715 3.43266 6.85714 3.6998V8.21886C6.85714 9.61124 7.39898 10.9466 8.36345 11.9311C9.32792 12.9157 10.636 13.4688 12 13.4688ZM10.3929 3.93974C10.3929 3.88535 10.414 3.83319 10.4517 3.79473C10.4894 3.75627 10.5405 3.73466 10.5938 3.73466H11.4644V2.84586C11.4644 2.79147 11.4856 2.73931 11.5233 2.70085C11.5609 2.66239 11.612 2.64078 11.6653 2.64078H12.3347C12.388 2.64078 12.4391 2.66239 12.4767 2.70085C12.5144 2.73931 12.5356 2.79147 12.5356 2.84586V3.73466H13.4062C13.4595 3.73466 13.5106 3.75627 13.5483 3.79473C13.586 3.83319 13.6071 3.88535 13.6071 3.93974V4.62305C13.6071 4.67744 13.586 4.7296 13.5483 4.76806C13.5106 4.80652 13.4595 4.82813 13.4062 4.82813H12.5356V5.71693C12.5356 5.77132 12.5144 5.82348 12.4767 5.86194C12.4391 5.9004 12.388 5.92201 12.3347 5.92201H11.6653C11.612 5.92201 11.5609 5.9004 11.5233 5.86194C11.4856 5.82348 11.4644 5.77132 11.4644 5.71693V4.82813H10.5938C10.5405 4.82813 10.4894 4.80652 10.4517 4.76806C10.414 4.7296 10.3929 4.67744 10.3929 4.62305V3.93974ZM8.78571 7.56262H15.2143V8.21886C15.2143 9.0891 14.8756 9.92369 14.2728 10.539C13.67 11.1544 12.8525 11.5001 12 11.5001C11.1475 11.5001 10.33 11.1544 9.72716 10.539C9.12436 9.92369 8.78571 9.0891 8.78571 8.21886V7.56262Z" fill="white"/>
</svg>
