<svg width="318" height="67" viewBox="0 0 318 67" fill="none" xmlns="http://www.w3.org/2000/svg">
<rect x="0.5" y="0.5" width="317" height="66" rx="19.5" fill="white"/>
<rect x="0.5" y="0.5" width="317" height="66" rx="19.5" stroke="white"/>
<path d="M101.825 28.0469H103.562L106.118 35.3545L108.675 28.0469H110.411L106.815 38H105.421L101.825 28.0469ZM100.889 28.0469H102.618L102.933 35.1699V38H100.889V28.0469ZM109.618 28.0469H111.354V38H109.304V35.1699L109.618 28.0469ZM117.021 36.332V33.0371C117.021 32.8001 116.983 32.5973 116.905 32.4287C116.828 32.2555 116.707 32.1211 116.543 32.0254C116.383 31.9297 116.176 31.8818 115.921 31.8818C115.702 31.8818 115.513 31.9206 115.354 31.998C115.194 32.071 115.071 32.1781 114.984 32.3193C114.898 32.4561 114.854 32.6178 114.854 32.8047H112.886C112.886 32.4902 112.959 32.1917 113.104 31.9092C113.25 31.6266 113.462 31.3783 113.74 31.1641C114.018 30.9453 114.349 30.7744 114.731 30.6514C115.119 30.5283 115.552 30.4668 116.03 30.4668C116.604 30.4668 117.115 30.5625 117.562 30.7539C118.008 30.9453 118.359 31.2324 118.614 31.6152C118.874 31.998 119.004 32.4766 119.004 33.0508V36.2158C119.004 36.6214 119.029 36.9541 119.079 37.2139C119.129 37.4691 119.202 37.6924 119.298 37.8838V38H117.309C117.213 37.7995 117.14 37.5488 117.09 37.248C117.044 36.9427 117.021 36.6374 117.021 36.332ZM117.281 33.4951L117.295 34.6094H116.194C115.935 34.6094 115.709 34.639 115.518 34.6982C115.326 34.7575 115.169 34.8418 115.046 34.9512C114.923 35.056 114.832 35.179 114.772 35.3203C114.718 35.4616 114.69 35.6165 114.69 35.7852C114.69 35.9538 114.729 36.1064 114.807 36.2432C114.884 36.3753 114.996 36.4801 115.142 36.5576C115.287 36.6305 115.458 36.667 115.654 36.667C115.951 36.667 116.208 36.6077 116.427 36.4893C116.646 36.3708 116.814 36.2249 116.933 36.0518C117.056 35.8786 117.119 35.7145 117.124 35.5596L117.644 36.3936C117.571 36.5804 117.47 36.7741 117.343 36.9746C117.22 37.1751 117.062 37.3643 116.871 37.542C116.68 37.7152 116.45 37.8587 116.181 37.9727C115.912 38.082 115.593 38.1367 115.224 38.1367C114.754 38.1367 114.328 38.0433 113.945 37.8564C113.567 37.665 113.266 37.403 113.043 37.0703C112.824 36.7331 112.715 36.3503 112.715 35.9219C112.715 35.5345 112.788 35.1904 112.934 34.8896C113.079 34.5889 113.294 34.3359 113.576 34.1309C113.863 33.9212 114.221 33.764 114.649 33.6592C115.078 33.5498 115.575 33.4951 116.14 33.4951H117.281ZM122.449 32.1826V38H120.48V30.6035H122.326L122.449 32.1826ZM122.162 34.042H121.629C121.629 33.4951 121.7 33.0029 121.841 32.5654C121.982 32.1234 122.18 31.7474 122.436 31.4375C122.691 31.123 122.994 30.8838 123.345 30.7197C123.7 30.5511 124.097 30.4668 124.534 30.4668C124.881 30.4668 125.197 30.5169 125.484 30.6172C125.771 30.7174 126.018 30.877 126.223 31.0957C126.432 31.3145 126.592 31.6038 126.701 31.9639C126.815 32.3239 126.872 32.7637 126.872 33.2832V38H124.89V33.2764C124.89 32.9482 124.844 32.693 124.753 32.5107C124.662 32.3285 124.527 32.2008 124.35 32.1279C124.176 32.0505 123.962 32.0117 123.707 32.0117C123.443 32.0117 123.213 32.0641 123.017 32.1689C122.825 32.2738 122.666 32.4196 122.538 32.6064C122.415 32.7887 122.322 33.0029 122.258 33.249C122.194 33.4951 122.162 33.7594 122.162 34.042ZM132.361 36.332V33.0371C132.361 32.8001 132.323 32.5973 132.245 32.4287C132.168 32.2555 132.047 32.1211 131.883 32.0254C131.723 31.9297 131.516 31.8818 131.261 31.8818C131.042 31.8818 130.853 31.9206 130.693 31.998C130.534 32.071 130.411 32.1781 130.324 32.3193C130.238 32.4561 130.194 32.6178 130.194 32.8047H128.226C128.226 32.4902 128.299 32.1917 128.444 31.9092C128.59 31.6266 128.802 31.3783 129.08 31.1641C129.358 30.9453 129.688 30.7744 130.071 30.6514C130.459 30.5283 130.892 30.4668 131.37 30.4668C131.944 30.4668 132.455 30.5625 132.901 30.7539C133.348 30.9453 133.699 31.2324 133.954 31.6152C134.214 31.998 134.344 32.4766 134.344 33.0508V36.2158C134.344 36.6214 134.369 36.9541 134.419 37.2139C134.469 37.4691 134.542 37.6924 134.638 37.8838V38H132.648C132.553 37.7995 132.48 37.5488 132.43 37.248C132.384 36.9427 132.361 36.6374 132.361 36.332ZM132.621 33.4951L132.635 34.6094H131.534C131.274 34.6094 131.049 34.639 130.857 34.6982C130.666 34.7575 130.509 34.8418 130.386 34.9512C130.263 35.056 130.172 35.179 130.112 35.3203C130.058 35.4616 130.03 35.6165 130.03 35.7852C130.03 35.9538 130.069 36.1064 130.146 36.2432C130.224 36.3753 130.336 36.4801 130.481 36.5576C130.627 36.6305 130.798 36.667 130.994 36.667C131.29 36.667 131.548 36.6077 131.767 36.4893C131.985 36.3708 132.154 36.2249 132.272 36.0518C132.396 35.8786 132.459 35.7145 132.464 35.5596L132.983 36.3936C132.91 36.5804 132.81 36.7741 132.683 36.9746C132.56 37.1751 132.402 37.3643 132.211 37.542C132.02 37.7152 131.789 37.8587 131.521 37.9727C131.252 38.082 130.933 38.1367 130.563 38.1367C130.094 38.1367 129.668 38.0433 129.285 37.8564C128.907 37.665 128.606 37.403 128.383 37.0703C128.164 36.7331 128.055 36.3503 128.055 35.9219C128.055 35.5345 128.128 35.1904 128.273 34.8896C128.419 34.5889 128.633 34.3359 128.916 34.1309C129.203 33.9212 129.561 33.764 129.989 33.6592C130.418 33.5498 130.914 33.4951 131.479 33.4951H132.621ZM140.544 30.6035H142.328V37.7539C142.328 38.4284 142.178 39.0003 141.877 39.4697C141.581 39.9437 141.166 40.3014 140.633 40.543C140.1 40.7891 139.48 40.9121 138.773 40.9121C138.464 40.9121 138.135 40.8711 137.789 40.7891C137.447 40.707 137.119 40.5794 136.805 40.4062C136.495 40.2331 136.235 40.0143 136.025 39.75L136.894 38.5879C137.121 38.8522 137.386 39.0573 137.687 39.2031C137.987 39.3535 138.32 39.4287 138.685 39.4287C139.04 39.4287 139.341 39.3626 139.587 39.2305C139.833 39.1029 140.022 38.9137 140.154 38.6631C140.286 38.417 140.353 38.1185 140.353 37.7676V32.3125L140.544 30.6035ZM135.567 34.3906V34.2471C135.567 33.682 135.636 33.1693 135.772 32.709C135.914 32.2441 136.112 31.8454 136.367 31.5127C136.627 31.18 136.941 30.9225 137.311 30.7402C137.68 30.5579 138.097 30.4668 138.562 30.4668C139.054 30.4668 139.466 30.5579 139.799 30.7402C140.132 30.9225 140.405 31.1823 140.619 31.5195C140.833 31.8522 141 32.2464 141.118 32.7021C141.241 33.1533 141.337 33.6478 141.405 34.1855V34.5C141.337 35.015 141.234 35.4935 141.098 35.9355C140.961 36.3776 140.781 36.765 140.558 37.0977C140.334 37.4258 140.056 37.681 139.724 37.8633C139.396 38.0456 139.004 38.1367 138.548 38.1367C138.092 38.1367 137.68 38.0433 137.311 37.8564C136.946 37.6696 136.634 37.4076 136.374 37.0703C136.114 36.7331 135.914 36.3366 135.772 35.8809C135.636 35.4251 135.567 34.9284 135.567 34.3906ZM137.536 34.2471V34.3906C137.536 34.696 137.566 34.9808 137.625 35.2451C137.684 35.5094 137.775 35.7441 137.898 35.9492C138.026 36.1497 138.183 36.307 138.37 36.4209C138.562 36.5303 138.787 36.585 139.047 36.585C139.407 36.585 139.701 36.5098 139.929 36.3594C140.157 36.2044 140.327 35.9925 140.441 35.7236C140.555 35.4548 140.621 35.1449 140.64 34.7939V33.8984C140.631 33.6113 140.592 33.3538 140.523 33.126C140.455 32.8936 140.359 32.6953 140.236 32.5312C140.113 32.3672 139.954 32.2396 139.758 32.1484C139.562 32.0573 139.329 32.0117 139.061 32.0117C138.801 32.0117 138.575 32.071 138.384 32.1895C138.197 32.3034 138.04 32.4606 137.912 32.6611C137.789 32.8617 137.696 33.0986 137.632 33.3721C137.568 33.641 137.536 33.9326 137.536 34.2471ZM147.264 38.1367C146.689 38.1367 146.174 38.0456 145.719 37.8633C145.263 37.6764 144.876 37.4189 144.557 37.0908C144.242 36.7627 144.001 36.3822 143.832 35.9492C143.663 35.5117 143.579 35.0469 143.579 34.5547V34.2812C143.579 33.7207 143.659 33.208 143.818 32.7432C143.978 32.2783 144.206 31.875 144.502 31.5332C144.803 31.1914 145.167 30.9294 145.596 30.7471C146.024 30.5602 146.507 30.4668 147.045 30.4668C147.569 30.4668 148.034 30.5534 148.439 30.7266C148.845 30.8997 149.185 31.1458 149.458 31.4648C149.736 31.7839 149.946 32.1667 150.087 32.6133C150.228 33.0553 150.299 33.5475 150.299 34.0898V34.9102H144.42V33.5977H148.364V33.4473C148.364 33.1738 148.314 32.93 148.214 32.7158C148.118 32.4971 147.972 32.3239 147.776 32.1963C147.58 32.0687 147.33 32.0049 147.024 32.0049C146.765 32.0049 146.541 32.0618 146.354 32.1758C146.168 32.2897 146.015 32.4492 145.896 32.6543C145.783 32.8594 145.696 33.1009 145.637 33.3789C145.582 33.6523 145.555 33.9531 145.555 34.2812V34.5547C145.555 34.8509 145.596 35.1243 145.678 35.375C145.764 35.6257 145.885 35.8421 146.04 36.0244C146.2 36.2067 146.391 36.348 146.614 36.4482C146.842 36.5485 147.1 36.5986 147.387 36.5986C147.742 36.5986 148.073 36.5303 148.378 36.3936C148.688 36.2523 148.954 36.0404 149.178 35.7578L150.135 36.7969C149.98 37.0202 149.768 37.2344 149.499 37.4395C149.235 37.6445 148.916 37.8132 148.542 37.9453C148.168 38.0729 147.742 38.1367 147.264 38.1367ZM158.926 33.6318H156.369L156.355 32.2236H158.502C158.88 32.2236 159.19 32.1758 159.432 32.0801C159.673 31.9798 159.853 31.8363 159.972 31.6494C160.095 31.458 160.156 31.2256 160.156 30.9521C160.156 30.6423 160.097 30.3916 159.979 30.2002C159.865 30.0088 159.685 29.8698 159.438 29.7832C159.197 29.6966 158.885 29.6533 158.502 29.6533H157.08V38H155.029V28.0469H158.502C159.081 28.0469 159.598 28.1016 160.054 28.2109C160.514 28.3203 160.904 28.4867 161.223 28.71C161.542 28.9333 161.785 29.2158 161.954 29.5576C162.123 29.8949 162.207 30.2959 162.207 30.7607C162.207 31.1709 162.114 31.5492 161.927 31.8955C161.744 32.2419 161.455 32.5244 161.059 32.7432C160.667 32.9619 160.154 33.0827 159.521 33.1055L158.926 33.6318ZM158.837 38H155.809L156.608 36.4004H158.837C159.197 36.4004 159.491 36.3434 159.719 36.2295C159.947 36.111 160.115 35.9515 160.225 35.751C160.334 35.5505 160.389 35.3203 160.389 35.0605C160.389 34.7689 160.339 34.516 160.238 34.3018C160.143 34.0876 159.988 33.9235 159.773 33.8096C159.559 33.6911 159.277 33.6318 158.926 33.6318H156.95L156.964 32.2236H159.425L159.896 32.7773C160.503 32.7682 160.99 32.8753 161.359 33.0986C161.733 33.3174 162.004 33.6022 162.173 33.9531C162.346 34.304 162.433 34.68 162.433 35.0811C162.433 35.7191 162.294 36.2568 162.016 36.6943C161.738 37.1273 161.33 37.4531 160.792 37.6719C160.259 37.8906 159.607 38 158.837 38ZM167.84 36.332V33.0371C167.84 32.8001 167.801 32.5973 167.724 32.4287C167.646 32.2555 167.525 32.1211 167.361 32.0254C167.202 31.9297 166.994 31.8818 166.739 31.8818C166.521 31.8818 166.331 31.9206 166.172 31.998C166.012 32.071 165.889 32.1781 165.803 32.3193C165.716 32.4561 165.673 32.6178 165.673 32.8047H163.704C163.704 32.4902 163.777 32.1917 163.923 31.9092C164.069 31.6266 164.281 31.3783 164.559 31.1641C164.837 30.9453 165.167 30.7744 165.55 30.6514C165.937 30.5283 166.37 30.4668 166.849 30.4668C167.423 30.4668 167.933 30.5625 168.38 30.7539C168.826 30.9453 169.177 31.2324 169.433 31.6152C169.692 31.998 169.822 32.4766 169.822 33.0508V36.2158C169.822 36.6214 169.847 36.9541 169.897 37.2139C169.948 37.4691 170.021 37.6924 170.116 37.8838V38H168.127C168.031 37.7995 167.958 37.5488 167.908 37.248C167.863 36.9427 167.84 36.6374 167.84 36.332ZM168.1 33.4951L168.113 34.6094H167.013C166.753 34.6094 166.527 34.639 166.336 34.6982C166.145 34.7575 165.987 34.8418 165.864 34.9512C165.741 35.056 165.65 35.179 165.591 35.3203C165.536 35.4616 165.509 35.6165 165.509 35.7852C165.509 35.9538 165.548 36.1064 165.625 36.2432C165.702 36.3753 165.814 36.4801 165.96 36.5576C166.106 36.6305 166.277 36.667 166.473 36.667C166.769 36.667 167.026 36.6077 167.245 36.4893C167.464 36.3708 167.632 36.2249 167.751 36.0518C167.874 35.8786 167.938 35.7145 167.942 35.5596L168.462 36.3936C168.389 36.5804 168.289 36.7741 168.161 36.9746C168.038 37.1751 167.881 37.3643 167.689 37.542C167.498 37.7152 167.268 37.8587 166.999 37.9727C166.73 38.082 166.411 38.1367 166.042 38.1367C165.573 38.1367 165.146 38.0433 164.764 37.8564C164.385 37.665 164.085 37.403 163.861 37.0703C163.643 36.7331 163.533 36.3503 163.533 35.9219C163.533 35.5345 163.606 35.1904 163.752 34.8896C163.898 34.5889 164.112 34.3359 164.395 34.1309C164.682 33.9212 165.039 33.764 165.468 33.6592C165.896 33.5498 166.393 33.4951 166.958 33.4951H168.1ZM171.34 27.5H173.309V36.3047L173.11 38H171.34V27.5ZM177.991 34.2266V34.3701C177.991 34.9215 177.932 35.4274 177.813 35.8877C177.7 36.348 177.522 36.7467 177.28 37.084C177.039 37.4167 176.738 37.6764 176.378 37.8633C176.022 38.0456 175.603 38.1367 175.12 38.1367C174.669 38.1367 174.277 38.0456 173.944 37.8633C173.616 37.681 173.34 37.4235 173.117 37.0908C172.894 36.7581 172.714 36.3685 172.577 35.9219C172.44 35.4753 172.338 34.9876 172.27 34.459V34.1445C172.338 33.6159 172.44 33.1283 172.577 32.6816C172.714 32.235 172.894 31.8454 173.117 31.5127C173.34 31.18 173.616 30.9225 173.944 30.7402C174.272 30.5579 174.66 30.4668 175.106 30.4668C175.594 30.4668 176.018 30.5602 176.378 30.7471C176.743 30.9294 177.043 31.1891 177.28 31.5264C177.522 31.859 177.7 32.2555 177.813 32.7158C177.932 33.1715 177.991 33.6751 177.991 34.2266ZM176.022 34.3701V34.2266C176.022 33.9258 176 33.6432 175.954 33.3789C175.913 33.11 175.84 32.8753 175.735 32.6748C175.631 32.4697 175.487 32.3079 175.305 32.1895C175.127 32.071 174.897 32.0117 174.614 32.0117C174.345 32.0117 174.118 32.0573 173.931 32.1484C173.744 32.2396 173.589 32.3672 173.466 32.5312C173.347 32.6953 173.258 32.8913 173.199 33.1191C173.14 33.3424 173.104 33.5885 173.09 33.8574V34.7529C173.104 35.113 173.163 35.432 173.268 35.71C173.377 35.9834 173.541 36.1999 173.76 36.3594C173.983 36.5143 174.272 36.5918 174.628 36.5918C174.906 36.5918 175.136 36.5371 175.318 36.4277C175.501 36.3184 175.642 36.1634 175.742 35.9629C175.847 35.7624 175.92 35.5277 175.961 35.2588C176.002 34.9854 176.022 34.6891 176.022 34.3701ZM181.293 30.6035V38H179.317V30.6035H181.293ZM179.194 28.6758C179.194 28.3887 179.295 28.1517 179.495 27.9648C179.696 27.778 179.965 27.6846 180.302 27.6846C180.634 27.6846 180.901 27.778 181.102 27.9648C181.307 28.1517 181.409 28.3887 181.409 28.6758C181.409 28.9629 181.307 29.1999 181.102 29.3867C180.901 29.5736 180.634 29.667 180.302 29.667C179.965 29.667 179.696 29.5736 179.495 29.3867C179.295 29.1999 179.194 28.9629 179.194 28.6758ZM186.324 38.1367C185.75 38.1367 185.235 38.0456 184.779 37.8633C184.324 37.6764 183.936 37.4189 183.617 37.0908C183.303 36.7627 183.061 36.3822 182.893 35.9492C182.724 35.5117 182.64 35.0469 182.64 34.5547V34.2812C182.64 33.7207 182.719 33.208 182.879 32.7432C183.038 32.2783 183.266 31.875 183.562 31.5332C183.863 31.1914 184.228 30.9294 184.656 30.7471C185.085 30.5602 185.568 30.4668 186.105 30.4668C186.63 30.4668 187.094 30.5534 187.5 30.7266C187.906 30.8997 188.245 31.1458 188.519 31.4648C188.797 31.7839 189.006 32.1667 189.147 32.6133C189.289 33.0553 189.359 33.5475 189.359 34.0898V34.9102H183.48V33.5977H187.425V33.4473C187.425 33.1738 187.375 32.93 187.274 32.7158C187.179 32.4971 187.033 32.3239 186.837 32.1963C186.641 32.0687 186.39 32.0049 186.085 32.0049C185.825 32.0049 185.602 32.0618 185.415 32.1758C185.228 32.2897 185.076 32.4492 184.957 32.6543C184.843 32.8594 184.757 33.1009 184.697 33.3789C184.643 33.6523 184.615 33.9531 184.615 34.2812V34.5547C184.615 34.8509 184.656 35.1243 184.738 35.375C184.825 35.6257 184.946 35.8421 185.101 36.0244C185.26 36.2067 185.451 36.348 185.675 36.4482C185.903 36.5485 186.16 36.5986 186.447 36.5986C186.803 36.5986 187.133 36.5303 187.438 36.3936C187.748 36.2523 188.015 36.0404 188.238 35.7578L189.195 36.7969C189.04 37.0202 188.828 37.2344 188.56 37.4395C188.295 37.6445 187.976 37.8132 187.603 37.9453C187.229 38.0729 186.803 38.1367 186.324 38.1367ZM194.479 35.9561C194.479 35.8148 194.438 35.6872 194.356 35.5732C194.274 35.4593 194.122 35.3545 193.898 35.2588C193.68 35.1585 193.363 35.0674 192.948 34.9854C192.575 34.9033 192.226 34.8008 191.902 34.6777C191.583 34.5501 191.305 34.3975 191.068 34.2197C190.836 34.042 190.654 33.8324 190.521 33.5908C190.389 33.3447 190.323 33.0645 190.323 32.75C190.323 32.4401 190.389 32.1484 190.521 31.875C190.658 31.6016 190.852 31.36 191.103 31.1504C191.358 30.9362 191.668 30.7699 192.032 30.6514C192.401 30.5283 192.816 30.4668 193.276 30.4668C193.919 30.4668 194.47 30.5693 194.931 30.7744C195.396 30.9795 195.751 31.262 195.997 31.6221C196.248 31.9775 196.373 32.3831 196.373 32.8389H194.404C194.404 32.6475 194.363 32.4766 194.281 32.3262C194.204 32.1712 194.081 32.0505 193.912 31.9639C193.748 31.8727 193.534 31.8271 193.27 31.8271C193.051 31.8271 192.862 31.8659 192.702 31.9434C192.543 32.0163 192.42 32.1165 192.333 32.2441C192.251 32.3672 192.21 32.5039 192.21 32.6543C192.21 32.7682 192.233 32.8708 192.278 32.9619C192.328 33.0485 192.408 33.1283 192.518 33.2012C192.627 33.2741 192.768 33.3424 192.941 33.4062C193.119 33.4655 193.338 33.5202 193.598 33.5703C194.131 33.6797 194.607 33.8232 195.026 34.001C195.446 34.1742 195.778 34.4111 196.024 34.7119C196.271 35.0081 196.394 35.3978 196.394 35.8809C196.394 36.209 196.321 36.5098 196.175 36.7832C196.029 37.0566 195.819 37.2959 195.546 37.501C195.272 37.7015 194.944 37.8587 194.562 37.9727C194.183 38.082 193.757 38.1367 193.283 38.1367C192.595 38.1367 192.012 38.0137 191.533 37.7676C191.059 37.5215 190.699 37.2093 190.453 36.8311C190.212 36.4482 190.091 36.0563 190.091 35.6553H191.957C191.966 35.9242 192.035 36.1406 192.162 36.3047C192.294 36.4688 192.461 36.5872 192.661 36.6602C192.866 36.7331 193.087 36.7695 193.324 36.7695C193.579 36.7695 193.791 36.7354 193.96 36.667C194.129 36.5941 194.256 36.4984 194.343 36.3799C194.434 36.2568 194.479 36.1156 194.479 35.9561Z" fill="#0D2B71"/>
<path d="M60.5 30.5C60.5 22 54.5 18 48 18C41.5 18 35.5 22 35.5 30.5C33.75 30.5 33 31.75 33 33C33 34.25 33.75 35.5 35.5 35.5C35.5 38.85 39 43.5 48 43.5C57 43.5 60.5 38.85 60.5 35.5C62.25 35.5 63 34.25 63 33C63 31.75 62.25 30.5 60.5 30.5Z" fill="#FFDD67"/>
<path d="M48.5 24.5C46.5 23 47.5 21 47.5 21C47.5 21 51.5 23.5 55 22.5C55 22.5 53 22 52.5 20.5C52.5 20.5 54.5 21 56 20.5C54 19 51.5 18 48 18C44.5 18 42 19 40 20.5C42 23 44 24.5 48.5 24.5Z" fill="#FFB300"/>
<path opacity="0.5" d="M60.0003 35.7C59.8003 34.5 58.3503 33.75 56.7003 34.1C55.0503 34.4 53.8503 35.65 54.0503 36.85C54.2503 38.05 55.7003 38.8 57.3503 38.45C58.9503 38.1 60.1503 36.9 60.0003 35.7ZM39.3003 34.05C37.7003 33.75 36.2003 34.5 36.0003 35.7C35.8003 36.9 37.0003 38.15 38.6503 38.45C40.3003 38.75 41.8003 38.05 41.9503 36.85C42.1503 35.6 40.9503 34.4 39.3003 34.05Z" fill="#FF717F"/>
<path d="M45 30.75C45 32.55 43.55 34 41.75 34C39.95 34 38.5 32.55 38.5 30.75C38.5 28.95 39.95 27.5 41.75 27.5C43.55 27.5 45 28.95 45 30.75Z" fill="white"/>
<path d="M41.75 33C42.9926 33 44 31.9926 44 30.75C44 29.5074 42.9926 28.5 41.75 28.5C40.5074 28.5 39.5 29.5074 39.5 30.75C39.5 31.9926 40.5074 33 41.75 33Z" fill="#664E27"/>
<path d="M42.5 30.75C42.5 31.15 42.15 31.5 41.75 31.5C41.35 31.5 41 31.15 41 30.75C41 30.35 41.35 30 41.75 30C42.15 30 42.5 30.35 42.5 30.75Z" fill="#231F20"/>
<path d="M57.5 30.75C57.5 32.55 56.05 34 54.25 34C52.45 34 51 32.55 51 30.75C51 28.95 52.45 27.5 54.25 27.5C56.05 27.5 57.5 28.95 57.5 30.75Z" fill="white"/>
<path d="M54.25 33C55.4926 33 56.5 31.9926 56.5 30.75C56.5 29.5074 55.4926 28.5 54.25 28.5C53.0074 28.5 52 29.5074 52 30.75C52 31.9926 53.0074 33 54.25 33Z" fill="#664E27"/>
<path d="M54.25 31.5C54.6642 31.5 55 31.1642 55 30.75C55 30.3358 54.6642 30 54.25 30C53.8358 30 53.5 30.3358 53.5 30.75C53.5 31.1642 53.8358 31.5 54.25 31.5Z" fill="#231F20"/>
<path d="M55.5 38.8999C55.5 43.0499 52.15 44.9999 48 44.9999C43.85 44.9999 40.5 43.0499 40.5 38.8999C40.5 34.6999 43.9 36.4999 48 36.4999C52.15 36.4999 55.5 34.6999 55.5 38.8999Z" fill="#61C2FF"/>
<path d="M48 43C49.6569 43 51 41.8807 51 40.5C51 39.1193 49.6569 38 48 38C46.3431 38 45 39.1193 45 40.5C45 41.8807 46.3431 43 48 43Z" fill="#6235A8"/>
<path d="M48 39.9999C44.95 39.9999 42.5 39.6499 42.5 42.5999C42.5 45.5999 44.95 47.9999 48 47.9999C51.05 47.9999 53.5 45.5999 53.5 42.6499C53.5 39.6499 51.05 39.9999 48 39.9999ZM48 46.1999C45.85 46.1999 43.85 44.7499 43.85 42.6499C43.85 40.5499 45.85 41.0499 48 41.0499C50.15 41.0499 52.15 40.5499 52.15 42.6499C52.15 44.7499 50.15 46.1999 48 46.1999Z" fill="#FBBF67"/>
<path d="M50 41.4C50 41.6999 49.75 42 49.45 42H46.55C46.25 42 46 41.7499 46 41.4V40.0499C46 39.7499 46.25 39.45 46.55 39.45H49.45C49.75 39.45 50 39.6999 50 40.0499V41.4Z" fill="#42ADE2"/>
<path d="M48.0002 36C45.9002 36 44.8502 34.5 45.9002 34.5H50.1002C51.1502 34.5 50.1002 36 48.0002 36Z" fill="#EBA352"/>
<g clip-path="url(#clip0_323_2455)">
<path fill-rule="evenodd" clip-rule="evenodd" d="M274.576 34.2709L263.023 40.6836L261.171 39.5949L269.523 34.96L239.769 34.5816L239.788 33.0753L269.542 33.4536L261.311 28.6093L263.19 27.5666L274.576 34.2709Z" fill="black"/>
</g>
<defs>
<clipPath id="clip0_323_2455">
<rect width="22.5966" height="39.5244" fill="white" transform="translate(276.809 23) rotate(90.7284)"/>
</clipPath>
</defs>
</svg>
