<svg width="42" height="42" viewBox="0 0 42 42" fill="none" xmlns="http://www.w3.org/2000/svg">
<rect width="42" height="42" rx="10" fill="#D9D9D9"/>
<path d="M20.9994 31.8C21.4768 31.8 21.9346 31.6103 22.2722 31.2728C22.6098 30.9352 22.7994 30.4774 22.7994 30V15.744L27.5274 20.472C27.8686 20.7899 28.3199 20.963 28.7862 20.9548C29.2526 20.9466 29.6975 20.7577 30.0273 20.4279C30.3571 20.0981 30.546 19.6532 30.5542 19.1868C30.5624 18.7205 30.3893 18.2692 30.0714 17.928L22.2714 10.128C21.9339 9.7909 21.4764 9.60156 20.9994 9.60156C20.5224 9.60156 20.0649 9.7909 19.7274 10.128L11.9274 17.928C11.7505 18.0928 11.6087 18.2915 11.5103 18.5123C11.4119 18.7331 11.359 18.9714 11.3548 19.2131C11.3505 19.4548 11.395 19.6949 11.4855 19.919C11.576 20.1431 11.7108 20.3467 11.8817 20.5177C12.0526 20.6886 12.2562 20.8233 12.4804 20.9139C12.7045 21.0044 12.9446 21.0489 13.1862 21.0446C13.4279 21.0403 13.6663 20.9874 13.8871 20.8891C14.1079 20.7907 14.3066 20.6488 14.4714 20.472L19.1994 15.744V30C19.1994 30.9936 20.0058 31.8 20.9994 31.8Z" fill="black"/>
</svg>
